# xmcd
#
# Track frame offsets: 
#        150
#        18157
#        31545
#        49037
#        60889
#        89900
#        110722
#        125025
#        139357
#        158145
#        177122
#        196170
#        217390
#        243857
#
# Disc length: 3540 seconds
#
# Revision: 1
# Processed by: cddbd v1.5.2PL0 Copyright (c) Steve Scherf et al.
# Submitted via: ExactAudioCopy v1.0b4
#
DISCID=c20dd20e
DTITLE=Various Artist - The Best Of Dutch Blues - Disc 1
DYEAR=1900
DGENRE=blues
TTITLE0=Livin' Blues - Livin' Blues- Wang Dang Doodle - L. B. Boogie
TTITLE1=Rob Hoeke - Rob Hoeke - Margio
TTITLE2=Oscar Benton - Oscar Benton - Bensonhurst Blues
TTITLE3=Bintangs - Bintangs - Ridin' On The L and N
TTITLE4=Cuby and The Blizzards - Cuby and The Blizzards - Something Inside
TTITLE4=Me
TTITLE5=Herman Brood - Herman Brood -Showbizz Blues
TTITLE6=Kaz Lux and John Schuursma - Kaz Lux and John Schuursma - Sinner's
TTITLE6=Prayer
TTITLE7=Flavium - Flavium - Honey Bee
TTITLE8=Artie Kraaijeveld - Artie Kraaijeveld - Sweet Louisa
TTITLE9=Shakey Sam - Shakey Sam -Little Red Rooster
TTITLE10=John The Revelator - John The Revelator -The Journey
TTITLE11=Eelco Gelling and Blues Connection - Eelco Gelling and Blues Conn
TTITLE11=ection -Distant Smile
TTITLE12=Sketch - Sketch -Further Up On The Road
TTITLE13=Blue Horizon - Blue Horizon - Shoulder To Cry
EXTD=
EXTT0=
EXTT1=
EXTT2=
EXTT3=
EXTT4=
EXTT5=
EXTT6=
EXTT7=
EXTT8=
EXTT9=
EXTT10=
EXTT11=
EXTT12=
EXTT13=
PLAYORDER=
